<svg width="1440" height="816" viewBox="0 0 1440 816" fill="none" xmlns="http://www.w3.org/2000/svg">
<mask id="mask0_14174_63176" style="mask-type:alpha" maskUnits="userSpaceOnUse" x="0" y="0" width="1440" height="1440">
<rect width="1440" height="1440" fill="url(#paint0_radial_14174_63176)"/>
</mask>
<g mask="url(#mask0_14174_63176)">
<path d="M369.747 291.292C350.09 263.797 316.252 259.364 302.964 283.29C275.618 332.517 332.07 496.661 358.724 498.916C384.983 501.137 410.771 348.664 369.747 291.292Z" stroke="#C6C8D3" stroke-width="0.622049" stroke-miterlimit="10"/>
<path d="M468.449 348.029C508.597 411.916 361.956 567.964 310.1 529.16C278.214 505.303 265.036 432.964 259.99 372.673C255.252 316.074 269.114 230.499 317.382 199.167C343.012 182.56 384.251 179.626 403.142 198.124C417.76 212.44 418.064 236.195 420.998 240.782C416.543 266.852 413.498 271.222 415.504 290.727C418.124 316.221 457.409 330.459 468.449 348.029Z" stroke="#C6C8D3" stroke-width="0.622049" stroke-miterlimit="10"/>
<path d="M569.691 399.063C575.188 482.634 342.168 627.907 264.016 553.702C214.242 506.443 208.485 405.594 212.663 333.433C216.5 267.148 252.996 149.913 334.34 109.342C381.603 85.7623 455.366 84.5194 485.388 122.277C509.315 152.375 505.285 199.099 505.958 207.011C491.898 257.886 480.327 264.377 479.664 300.024C478.799 347.219 567.42 364.131 569.691 399.063Z" stroke="#C6C8D3" stroke-width="0.622049" stroke-miterlimit="10"/>
<path d="M669.202 445.12C665.751 539.561 320.856 682.826 216.209 573.264C148.675 502.552 150.052 373.227 163.613 289.214C175.872 213.215 235.116 64.7522 349.575 14.5375C418.601 -15.7503 524.653 -15.62 565.909 41.4432C599.068 87.294 591.686 157.182 589.191 168.246C571.73 245.6 545.425 252.523 542.105 304.364C537.643 373.238 670.984 395.665 669.202 445.12Z" stroke="#C6C8D3" stroke-width="0.622049" stroke-miterlimit="10"/>
<path d="M763.97 488.124C752.191 594.525 295.123 734.449 163.65 589.776C78.5816 495.443 86.7818 337.767 109.806 241.954C130.41 156.174 212.431 -23.3543 360.059 -83.3486C450.805 -120.226 589.161 -118.834 641.697 -42.4681C684.072 19.1698 671.991 111.986 667.7 126.408C637.503 227.873 605.655 237.576 599.777 305.573C591.72 396.141 771.015 424.435 763.97 488.124Z" stroke="#C6C8D3" stroke-width="0.622049" stroke-miterlimit="10"/>
<path d="M715.781 -128.894C767.359 -51.4966 750.612 64.1867 744.498 82.0586C701.62 207.365 664.436 220.11 655.804 304.285C644.296 416.53 870.053 450.987 857.075 528.551C837.137 647.693 267.206 783.993 109.429 603.71C6.47956 486.075 21.783 299.682 54.3418 192.107C83.2502 96.5706 188.073 -113.912 368.886 -183.752C481.354 -227.181 652.013 -224.59 715.781 -128.894Z" stroke="#C6C8D3" stroke-width="0.622049" stroke-miterlimit="10"/>
<path d="M983.618 774.767C976.291 741.32 1025.07 688.09 1041.56 715.827C1051.1 731.844 1052.68 779.641 1041.04 801.21C1024.66 831.584 988.654 797.784 983.618 774.767Z" stroke="#C6C8D3" stroke-width="0.622049" stroke-miterlimit="10"/>
<path d="M1022.69 670.429C1031.2 671.925 1038.14 686.436 1050.78 698.238C1076.44 722.175 1086.49 724.158 1102.66 741.628C1108.97 748.44 1117.32 757.637 1116.94 768.559C1116.37 785.285 1099.21 793.336 1071.96 820.604C1036.55 855.98 1028.11 868.245 1004.52 865.818C999.034 865.249 982.034 866.77 969.127 856.561C951.274 842.417 957.393 819.675 942.407 796.402C924.426 768.448 901.336 757.819 907.007 742.618C910.999 731.909 927.668 727.747 955.241 714.127C976.245 703.752 990.061 697.09 1000.48 687.92C1012.87 676.946 1013.22 668.762 1022.69 670.429Z" stroke="#C6C8D3" stroke-width="0.622049" stroke-miterlimit="10"/>
<path d="M994.866 623.091C1008.77 620.519 1020.37 640.633 1044.33 653.925C1093.5 681.183 1118.81 657.597 1155.32 680.106C1170.82 689.655 1187.53 706.374 1189.61 726.473C1192.56 754.997 1166.01 770.854 1117.61 826.83C1054.32 900.013 1044.86 927.201 1003.16 931.215C994.66 932.029 962.723 938.215 938.668 920.732C906.587 897.414 921.785 857.24 892.273 816.015C859.328 769.945 809.368 761.306 814.895 741.981C818.734 728.56 846.178 727.113 895.583 706.211C930.706 691.381 951.183 682.496 965.748 665.532C984.115 644.125 979.767 625.89 994.866 623.091Z" stroke="#C6C8D3" stroke-width="0.622049" stroke-miterlimit="10"/>
<path d="M967.207 575.662C986.447 568.956 1002.76 594.706 1038.05 609.52C1110.72 640.021 1150.76 590.323 1208.16 618.491C1232.72 630.549 1257.83 655.107 1262.45 684.296C1268.85 724.75 1233.13 748.377 1163.42 833.023C1072.47 944.153 1061.44 985.599 1001.98 996.593C990.384 998.732 943.604 1009.62 908.368 984.889C862.081 952.386 886.384 894.696 842.309 835.62C794.387 771.384 717.593 764.795 722.937 741.302C726.66 725.167 764.809 726.265 836.087 698.251C885.313 678.906 912.354 667.845 931.174 643.092C955.424 611.188 946.479 582.87 967.207 575.662Z" stroke="#C6C8D3" stroke-width="0.622049" stroke-miterlimit="10"/>
<path d="M939.566 528.105C964.126 517.3 985.167 548.597 1031.79 564.988C1127.97 598.628 1182.53 522.782 1261.01 556.757C1294.59 571.274 1328.12 603.743 1335.3 641.998C1345.14 694.416 1300.07 725.608 1209.25 839.06C1090.36 987.908 1077.85 1043.75 1000.79 1061.78C986.097 1065.22 924.515 1080.79 878.069 1048.85C817.607 1007.1 851.016 931.989 792.337 855.026C729.48 772.598 625.786 768.075 630.988 740.496C634.573 721.645 683.457 725.29 776.6 690.164C839.933 666.282 873.507 653.082 896.612 620.534C926.703 578.119 913.155 539.727 939.566 528.105Z" stroke="#C6C8D3" stroke-width="0.622049" stroke-miterlimit="10"/>
<path d="M911.91 480.451C879.803 496.49 897.964 544.938 862.03 597.856C834.635 638.209 794.542 653.544 717.095 681.966C602.088 724.171 542.466 718.004 539.028 739.57C533.968 771.273 664.567 773.72 742.357 874.356C815.636 969.161 773.049 1061.84 847.761 1112.73C905.365 1151.95 981.734 1131.64 999.608 1126.89C1094.22 1101.72 1108.25 1031.57 1255.06 844.991C1367 702.726 1421.41 663.994 1408.14 599.581C1398.38 552.266 1356.41 511.868 1313.84 494.903C1214.22 455.164 1145.14 557.285 1025.5 520.358C967.525 502.462 941.778 465.526 911.91 480.451Z" stroke="#C6C8D3" stroke-width="0.622049" stroke-miterlimit="10"/>
<path d="M461.396 1029.36C463.826 1019.64 451.151 1003.29 437.53 1004.69C422.079 1006.28 414.359 1029.82 420.295 1038.03C427.323 1047.74 458.187 1042.25 461.396 1029.36Z" stroke="#C6C8D3" stroke-width="0.622049" stroke-miterlimit="10"/>
<path d="M387.112 1072.11C404.381 1083.79 431.343 1084.48 476.715 1081.95C521.704 1079.44 552.449 1071.22 553.227 1064.23C553.638 1060.43 541.863 1052.61 532.95 1045.63C516.302 1032.56 511.49 1004.79 508.482 998.075C497.463 973.495 486.173 968.111 465.397 961.521C455.8 958.468 434.388 951.126 411.147 951.042C375.94 950.86 357.673 918.249 345.244 925.563C334.875 931.695 340.052 966.948 344.852 989.477C351.73 1021.76 360.438 1054.04 387.112 1072.11Z" stroke="#C6C8D3" stroke-width="0.622049" stroke-miterlimit="10"/>
<path d="M355.647 1106.35C386.022 1125.11 429.852 1125.22 511.097 1122.26C592.771 1119.46 646.423 1107.13 646.737 1099.27C647.002 1093.37 623.557 1079.79 606.247 1067.65C573.505 1044.79 566.053 992.216 561.952 981.966C543.412 935.184 522.742 927.324 484.537 916.261C468.625 911.652 429.293 898.021 386.392 897.502C320.655 896.637 288.07 828.945 266.318 840.117C248.207 849.437 260.346 916.332 271.423 957.64C287.118 1015.95 304.306 1074.67 355.647 1106.35Z" stroke="#C6C8D3" stroke-width="0.622049" stroke-miterlimit="10"/>
<path d="M324.393 1140.4C367.871 1166.25 428.573 1165.67 545.689 1162.38C664.045 1159.16 740.497 1142.85 740.501 1134.1C740.532 1126.08 705.472 1106.74 679.737 1089.49C630.852 1056.94 620.826 979.48 615.683 965.675C589.949 896.63 559.626 886.287 503.93 870.82C481.708 864.645 424.452 844.742 361.91 843.769C265.641 842.245 218.751 739.46 187.665 754.477C161.815 766.993 180.802 865.571 198.284 925.613C222.58 1009.99 248.362 1095.21 324.393 1140.4Z" stroke="#C6C8D3" stroke-width="0.622049" stroke-miterlimit="10"/>
<path d="M293.143 1174.37C349.728 1207.32 427.308 1206.05 580.293 1202.41C735.324 1198.82 834.556 1178.53 834.279 1168.86C834.008 1158.73 787.448 1133.59 753.276 1111.25C688.319 1068.9 675.665 966.659 669.428 949.31C636.626 857.975 596.554 845.039 523.342 825.297C494.816 817.509 419.631 791.382 337.444 789.97C210.646 787.763 149.443 649.887 109.028 668.772C75.4495 684.465 101.417 814.696 125.151 893.515C158.246 1003.86 192.407 1115.7 293.143 1174.37Z" stroke="#C6C8D3" stroke-width="0.622049" stroke-miterlimit="10"/>
<path d="M723.187 932.904C683.362 819.276 633.431 803.973 542.763 779.741C507.905 770.423 414.816 737.981 312.99 736.121C155.656 733.272 80.143 560.282 30.4039 583.017C-10.9592 601.916 22.053 763.777 52.0327 861.375C93.9427 997.741 136.463 1136.17 261.901 1208.3C331.601 1248.37 426.034 1246.39 614.905 1242.41C806.604 1238.38 928.595 1214.12 928.062 1203.56C927.44 1191.32 869.464 1160.41 826.831 1132.98C745.807 1080.82 730.512 953.805 723.187 932.904Z" stroke="#C6C8D3" stroke-width="0.622049" stroke-miterlimit="10"/>
<path d="M861.014 -96.1968C813.258 -71.3827 858.769 18.2485 770.197 157.473C738.457 207.361 701.789 244.316 707.351 299.505C707.916 305.073 714.288 360.178 757.446 390.259C811.739 428.105 865.329 385.243 962.022 421.818C997.641 435.289 989.434 440.75 1017.27 450.252C1136.07 490.797 1219.48 368.664 1338.15 401.129C1392.77 416.074 1412.77 452.238 1418.29 447.11C1441.95 425.015 989.676 -163.162 861.014 -96.1968Z" stroke="#C6C8D3" stroke-width="0.622049" stroke-miterlimit="10"/>
<path d="M780.118 298.404C781.3 301.556 786.729 337.61 816.672 356.368C854.488 380.097 891.916 348.511 957.215 370.691C981.259 378.85 975.952 381.956 994.736 387.382C1074.89 410.526 1130.41 323.556 1207.98 342.275C1243.88 350.935 1257.04 374.525 1259.33 370.047C1269.82 349.77 958.789 -35.6112 874.217 19.4963C842.499 40.1607 870.677 107.092 814.272 203.878C793.782 239.067 767.831 265.646 780.118 298.404Z" stroke="#C6C8D3" stroke-width="0.622049" stroke-miterlimit="10"/>
<path d="M852.891 297.302C855.435 297.697 859.334 315.044 875.898 322.478C897.387 332.132 918.461 311.835 952.4 319.566C964.858 322.401 962.51 323.168 972.207 324.519C1013.91 330.303 1041.28 278.4 1077.81 283.426C1095 285.756 1100.22 296.177 1100.39 293.041C1092.44 272.222 927.797 92.428 887.412 135.153C871.631 151.837 882.67 196.172 858.339 250.247C849.089 270.799 842.006 284.488 852.891 297.302Z" stroke="#C6C8D3" stroke-width="0.622049" stroke-miterlimit="10"/>
<path d="M925.658 296.201C956.427 277.177 957.529 229.634 941.437 215.979C917.684 195.849 898.68 221.968 900.611 250.824C902.079 272.386 890.445 317.971 925.658 296.201Z" stroke="#C6C8D3" stroke-width="0.622049" stroke-miterlimit="10"/>
</g>
<defs>
<radialGradient id="paint0_radial_14174_63176" cx="0" cy="0" r="1" gradientUnits="userSpaceOnUse" gradientTransform="translate(720 -0.000171661) rotate(90) scale(1440 751.588)">
<stop/>
<stop offset="0.953125" stop-opacity="0"/>
</radialGradient>
</defs>
</svg>
